<mxfile host="app.diagrams.net" modified="2023-12-02T08:08:48.244Z" agent="Mozilla/5.0 (Windows NT 10.0; Win64; x64) AppleWebKit/537.36 (KHTML, like Gecko) Chrome/119.0.0.0 Safari/537.36" version="22.1.5" etag="XkaQ7-7NJXOSiCXlAp3F" type="github">
  <diagram name="Page-1" id="cByXxgUHXSczyBm9OBNF">
    <mxGraphModel>
      <root>
        <mxCell id="0" />
        <mxCell id="1" parent="0" />
      </root>
    </mxGraphModel>
  </diagram>
</mxfile>
